<?xml version="1.0" encoding="UTF-8" standalone="no"?><!-- Generator: Gravit.io --><svg xmlns="http://www.w3.org/2000/svg" xmlns:xlink="http://www.w3.org/1999/xlink" style="isolation:isolate" viewBox="520 369.504 1145.169 277.128" width="1145.169pt" height="277.128pt"><g><g><path d=" M 1338.016 584.201 L 1338.016 548.277 L 1351.873 548.277 L 1351.873 548.277 Q 1357.467 548.277 1361.803 550.587 L 1361.803 550.587 L 1361.803 550.587 Q 1366.14 552.896 1368.526 556.976 L 1368.526 556.976 L 1368.526 556.976 Q 1370.913 561.056 1370.913 566.239 L 1370.913 566.239 L 1370.913 566.239 Q 1370.913 571.423 1368.526 575.503 L 1368.526 575.503 L 1368.526 575.503 Q 1366.14 579.583 1361.803 581.892 L 1361.803 581.892 L 1361.803 581.892 Q 1357.467 584.201 1351.873 584.201 L 1351.873 584.201 L 1338.016 584.201 L 1338.016 584.201 Z  M 1339.761 582.611 L 1351.77 582.611 L 1351.77 582.611 Q 1357.005 582.611 1360.931 580.506 L 1360.931 580.506 L 1360.931 580.506 Q 1364.857 578.402 1367.012 574.682 L 1367.012 574.682 L 1367.012 574.682 Q 1369.168 570.961 1369.168 566.239 L 1369.168 566.239 L 1369.168 566.239 Q 1369.168 561.518 1367.012 557.797 L 1367.012 557.797 L 1367.012 557.797 Q 1364.857 554.077 1360.931 551.973 L 1360.931 551.973 L 1360.931 551.973 Q 1357.005 549.868 1351.77 549.868 L 1351.77 549.868 L 1339.761 549.868 L 1339.761 582.611 L 1339.761 582.611 Z  M 1404.707 570.653 L 1404.707 571.115 L 1381.356 571.115 L 1381.356 571.115 Q 1381.408 574.502 1382.947 577.171 L 1382.947 577.171 L 1382.947 577.171 Q 1384.487 579.839 1387.181 581.328 L 1387.181 581.328 L 1387.181 581.328 Q 1389.875 582.816 1393.211 582.816 L 1393.211 582.816 L 1393.211 582.816 Q 1395.931 582.816 1398.241 581.815 L 1398.241 581.815 L 1398.241 581.815 Q 1400.55 580.814 1402.038 578.864 L 1402.038 578.864 L 1403.116 579.993 L 1403.116 579.993 Q 1401.32 582.097 1398.754 583.226 L 1398.754 583.226 L 1398.754 583.226 Q 1396.188 584.355 1393.211 584.355 L 1393.211 584.355 L 1393.211 584.355 Q 1389.311 584.355 1386.257 582.636 L 1386.257 582.636 L 1386.257 582.636 Q 1383.204 580.917 1381.459 577.838 L 1381.459 577.838 L 1381.459 577.838 Q 1379.714 574.759 1379.714 570.858 L 1379.714 570.858 L 1379.714 570.858 Q 1379.714 566.958 1381.331 563.879 L 1381.331 563.879 L 1381.331 563.879 Q 1382.947 560.8 1385.821 559.08 L 1385.821 559.08 L 1385.821 559.08 Q 1388.695 557.361 1392.236 557.361 L 1392.236 557.361 L 1392.236 557.361 Q 1395.726 557.361 1398.574 559.055 L 1398.574 559.055 L 1398.574 559.055 Q 1401.422 560.748 1403.065 563.776 L 1403.065 563.776 L 1403.065 563.776 Q 1404.707 566.804 1404.707 570.653 L 1404.707 570.653 L 1404.707 570.653 Z  M 1392.236 558.901 L 1392.236 558.901 Q 1389.26 558.901 1386.847 560.286 L 1386.847 560.286 L 1386.847 560.286 Q 1384.435 561.672 1382.998 564.161 L 1382.998 564.161 L 1382.998 564.161 Q 1381.562 566.65 1381.408 569.729 L 1381.408 569.729 L 1403.116 569.729 L 1403.116 569.729 Q 1402.911 566.65 1401.448 564.161 L 1401.448 564.161 L 1401.448 564.161 Q 1399.985 561.672 1397.599 560.286 L 1397.599 560.286 L 1397.599 560.286 Q 1395.213 558.901 1392.236 558.901 L 1392.236 558.901 L 1392.236 558.901 Z  M 1434.549 557.566 L 1436.346 557.566 L 1424.183 584.201 L 1422.489 584.201 L 1410.326 557.566 L 1412.174 557.566 L 1423.362 582.303 L 1434.549 557.566 L 1434.549 557.566 Z  M 1466.701 570.653 L 1466.701 571.115 L 1443.351 571.115 L 1443.351 571.115 Q 1443.402 574.502 1444.942 577.171 L 1444.942 577.171 L 1444.942 577.171 Q 1446.481 579.839 1449.176 581.328 L 1449.176 581.328 L 1449.176 581.328 Q 1451.87 582.816 1455.206 582.816 L 1455.206 582.816 L 1455.206 582.816 Q 1457.926 582.816 1460.235 581.815 L 1460.235 581.815 L 1460.235 581.815 Q 1462.545 580.814 1464.033 578.864 L 1464.033 578.864 L 1465.111 579.993 L 1465.111 579.993 Q 1463.314 582.097 1460.748 583.226 L 1460.748 583.226 L 1460.748 583.226 Q 1458.182 584.355 1455.206 584.355 L 1455.206 584.355 L 1455.206 584.355 Q 1451.305 584.355 1448.252 582.636 L 1448.252 582.636 L 1448.252 582.636 Q 1445.198 580.917 1443.453 577.838 L 1443.453 577.838 L 1443.453 577.838 Q 1441.709 574.759 1441.709 570.858 L 1441.709 570.858 L 1441.709 570.858 Q 1441.709 566.958 1443.325 563.879 L 1443.325 563.879 L 1443.325 563.879 Q 1444.942 560.8 1447.816 559.08 L 1447.816 559.08 L 1447.816 559.08 Q 1450.69 557.361 1454.231 557.361 L 1454.231 557.361 L 1454.231 557.361 Q 1457.72 557.361 1460.569 559.055 L 1460.569 559.055 L 1460.569 559.055 Q 1463.417 560.748 1465.059 563.776 L 1465.059 563.776 L 1465.059 563.776 Q 1466.701 566.804 1466.701 570.653 L 1466.701 570.653 L 1466.701 570.653 Z  M 1454.231 558.901 L 1454.231 558.901 Q 1451.254 558.901 1448.842 560.286 L 1448.842 560.286 L 1448.842 560.286 Q 1446.43 561.672 1444.993 564.161 L 1444.993 564.161 L 1444.993 564.161 Q 1443.556 566.65 1443.402 569.729 L 1443.402 569.729 L 1465.111 569.729 L 1465.111 569.729 Q 1464.905 566.65 1463.443 564.161 L 1463.443 564.161 L 1463.443 564.161 Q 1461.98 561.672 1459.594 560.286 L 1459.594 560.286 L 1459.594 560.286 Q 1457.207 558.901 1454.231 558.901 L 1454.231 558.901 L 1454.231 558.901 Z  M 1478.274 584.201 L 1478.274 546.122 L 1479.968 546.122 L 1479.968 584.201 L 1478.274 584.201 L 1478.274 584.201 Z  M 1504.627 584.355 L 1504.627 584.355 Q 1500.932 584.355 1497.93 582.636 L 1497.93 582.636 L 1497.93 582.636 Q 1494.927 580.917 1493.234 577.838 L 1493.234 577.838 L 1493.234 577.838 Q 1491.54 574.759 1491.54 570.858 L 1491.54 570.858 L 1491.54 570.858 Q 1491.54 566.958 1493.234 563.879 L 1493.234 563.879 L 1493.234 563.879 Q 1494.927 560.8 1497.93 559.08 L 1497.93 559.08 L 1497.93 559.08 Q 1500.932 557.361 1504.627 557.361 L 1504.627 557.361 L 1504.627 557.361 Q 1508.373 557.361 1511.35 559.08 L 1511.35 559.08 L 1511.35 559.08 Q 1514.326 560.8 1516.02 563.879 L 1516.02 563.879 L 1516.02 563.879 Q 1517.714 566.958 1517.714 570.858 L 1517.714 570.858 L 1517.714 570.858 Q 1517.714 574.759 1516.02 577.838 L 1516.02 577.838 L 1516.02 577.838 Q 1514.326 580.917 1511.35 582.636 L 1511.35 582.636 L 1511.35 582.636 Q 1508.373 584.355 1504.627 584.355 L 1504.627 584.355 L 1504.627 584.355 Z  M 1504.627 582.816 L 1504.627 582.816 Q 1507.86 582.816 1510.452 581.302 L 1510.452 581.302 L 1510.452 581.302 Q 1513.043 579.788 1514.532 577.068 L 1514.532 577.068 L 1514.532 577.068 Q 1516.02 574.348 1516.02 570.858 L 1516.02 570.858 L 1516.02 570.858 Q 1516.02 567.369 1514.532 564.674 L 1514.532 564.674 L 1514.532 564.674 Q 1513.043 561.98 1510.452 560.466 L 1510.452 560.466 L 1510.452 560.466 Q 1507.86 558.952 1504.627 558.952 L 1504.627 558.952 L 1504.627 558.952 Q 1501.394 558.952 1498.802 560.466 L 1498.802 560.466 L 1498.802 560.466 Q 1496.21 561.98 1494.722 564.674 L 1494.722 564.674 L 1494.722 564.674 Q 1493.234 567.369 1493.234 570.858 L 1493.234 570.858 L 1493.234 570.858 Q 1493.234 574.348 1494.722 577.068 L 1494.722 577.068 L 1494.722 577.068 Q 1496.21 579.788 1498.802 581.302 L 1498.802 581.302 L 1498.802 581.302 Q 1501.394 582.816 1504.627 582.816 L 1504.627 582.816 L 1504.627 582.816 Z  M 1542.424 557.361 L 1542.424 557.361 Q 1546.068 557.361 1549.044 559.08 L 1549.044 559.08 L 1549.044 559.08 Q 1552.021 560.8 1553.74 563.904 L 1553.74 563.904 L 1553.74 563.904 Q 1555.459 567.009 1555.459 570.91 L 1555.459 570.91 L 1555.459 570.91 Q 1555.459 574.81 1553.74 577.863 L 1553.74 577.863 L 1553.74 577.863 Q 1552.021 580.917 1549.044 582.636 L 1549.044 582.636 L 1549.044 582.636 Q 1546.068 584.355 1542.424 584.355 L 1542.424 584.355 L 1542.424 584.355 Q 1538.575 584.355 1535.522 582.405 L 1535.522 582.405 L 1535.522 582.405 Q 1532.468 580.455 1530.98 577.068 L 1530.98 577.068 L 1530.98 594.158 L 1529.286 594.158 L 1529.286 557.566 L 1530.928 557.566 L 1530.928 564.854 L 1530.928 564.854 Q 1532.417 561.364 1535.47 559.363 L 1535.47 559.363 L 1535.47 559.363 Q 1538.524 557.361 1542.424 557.361 L 1542.424 557.361 L 1542.424 557.361 Z  M 1542.373 582.816 L 1542.373 582.816 Q 1545.606 582.816 1548.198 581.302 L 1548.198 581.302 L 1548.198 581.302 Q 1550.789 579.788 1552.278 577.094 L 1552.278 577.094 L 1552.278 577.094 Q 1553.766 574.399 1553.766 570.91 L 1553.766 570.91 L 1553.766 570.91 Q 1553.766 567.42 1552.278 564.7 L 1552.278 564.7 L 1552.278 564.7 Q 1550.789 561.98 1548.198 560.466 L 1548.198 560.466 L 1548.198 560.466 Q 1545.606 558.952 1542.373 558.952 L 1542.373 558.952 L 1542.373 558.952 Q 1539.14 558.952 1536.548 560.466 L 1536.548 560.466 L 1536.548 560.466 Q 1533.956 561.98 1532.468 564.7 L 1532.468 564.7 L 1532.468 564.7 Q 1530.98 567.42 1530.98 570.91 L 1530.98 570.91 L 1530.98 570.91 Q 1530.98 574.399 1532.468 577.094 L 1532.468 577.094 L 1532.468 577.094 Q 1533.956 579.788 1536.548 581.302 L 1536.548 581.302 L 1536.548 581.302 Q 1539.14 582.816 1542.373 582.816 L 1542.373 582.816 L 1542.373 582.816 Z  M 1588.997 570.653 L 1588.997 571.115 L 1565.646 571.115 L 1565.646 571.115 Q 1565.698 574.502 1567.237 577.171 L 1567.237 577.171 L 1567.237 577.171 Q 1568.777 579.839 1571.471 581.328 L 1571.471 581.328 L 1571.471 581.328 Q 1574.166 582.816 1577.501 582.816 L 1577.501 582.816 L 1577.501 582.816 Q 1580.221 582.816 1582.531 581.815 L 1582.531 581.815 L 1582.531 581.815 Q 1584.84 580.814 1586.328 578.864 L 1586.328 578.864 L 1587.406 579.993 L 1587.406 579.993 Q 1585.61 582.097 1583.044 583.226 L 1583.044 583.226 L 1583.044 583.226 Q 1580.478 584.355 1577.501 584.355 L 1577.501 584.355 L 1577.501 584.355 Q 1573.601 584.355 1570.548 582.636 L 1570.548 582.636 L 1570.548 582.636 Q 1567.494 580.917 1565.749 577.838 L 1565.749 577.838 L 1565.749 577.838 Q 1564.004 574.759 1564.004 570.858 L 1564.004 570.858 L 1564.004 570.858 Q 1564.004 566.958 1565.621 563.879 L 1565.621 563.879 L 1565.621 563.879 Q 1567.237 560.8 1570.111 559.08 L 1570.111 559.08 L 1570.111 559.08 Q 1572.985 557.361 1576.526 557.361 L 1576.526 557.361 L 1576.526 557.361 Q 1580.016 557.361 1582.864 559.055 L 1582.864 559.055 L 1582.864 559.055 Q 1585.713 560.748 1587.355 563.776 L 1587.355 563.776 L 1587.355 563.776 Q 1588.997 566.804 1588.997 570.653 L 1588.997 570.653 L 1588.997 570.653 Z  M 1576.526 558.901 L 1576.526 558.901 Q 1573.55 558.901 1571.138 560.286 L 1571.138 560.286 L 1571.138 560.286 Q 1568.726 561.672 1567.289 564.161 L 1567.289 564.161 L 1567.289 564.161 Q 1565.852 566.65 1565.698 569.729 L 1565.698 569.729 L 1587.406 569.729 L 1587.406 569.729 Q 1587.201 566.65 1585.738 564.161 L 1585.738 564.161 L 1585.738 564.161 Q 1584.276 561.672 1581.889 560.286 L 1581.889 560.286 L 1581.889 560.286 Q 1579.503 558.901 1576.526 558.901 L 1576.526 558.901 L 1576.526 558.901 Z  M 1602.212 563.981 L 1602.212 563.981 Q 1603.392 560.8 1606.035 559.08 L 1606.035 559.08 L 1606.035 559.08 Q 1608.678 557.361 1612.579 557.361 L 1612.579 557.361 L 1612.579 559.055 L 1612.117 559.055 L 1612.117 559.055 Q 1607.498 559.055 1604.881 561.98 L 1604.881 561.98 L 1604.881 561.98 Q 1602.263 564.905 1602.263 570.037 L 1602.263 570.037 L 1602.263 584.201 L 1600.57 584.201 L 1600.57 557.566 L 1602.212 557.566 L 1602.212 563.981 L 1602.212 563.981 Z  M 1210.281 548.277 L 1210.281 548.277 Q 1217.004 548.277 1220.776 551.434 L 1220.776 551.434 L 1220.776 551.434 Q 1224.548 554.59 1224.548 560.184 L 1224.548 560.184 L 1224.548 560.184 Q 1224.548 565.829 1220.776 568.985 L 1220.776 568.985 L 1220.776 568.985 Q 1217.004 572.141 1210.281 572.141 L 1210.281 572.141 L 1199.555 572.141 L 1199.555 584.201 L 1197.81 584.201 L 1197.81 548.277 L 1210.281 548.277 L 1210.281 548.277 Z  M 1210.384 570.55 L 1210.384 570.55 Q 1216.388 570.55 1219.621 567.856 L 1219.621 567.856 L 1219.621 567.856 Q 1222.854 565.162 1222.854 560.184 L 1222.854 560.184 L 1222.854 560.184 Q 1222.854 555.257 1219.621 552.563 L 1219.621 552.563 L 1219.621 552.563 Q 1216.388 549.868 1210.384 549.868 L 1210.384 549.868 L 1199.555 549.868 L 1199.555 570.55 L 1210.384 570.55 L 1210.384 570.55 Z  M 1263.987 548.277 L 1265.732 548.277 L 1265.732 584.201 L 1263.987 584.201 L 1263.987 566.753 L 1238.789 566.753 L 1238.789 584.201 L 1237.044 584.201 L 1237.044 548.277 L 1238.789 548.277 L 1238.789 565.162 L 1263.987 565.162 L 1263.987 548.277 L 1263.987 548.277 Z  M 1294.548 548.277 L 1294.548 548.277 Q 1301.271 548.277 1305.043 551.434 L 1305.043 551.434 L 1305.043 551.434 Q 1308.815 554.59 1308.815 560.184 L 1308.815 560.184 L 1308.815 560.184 Q 1308.815 565.829 1305.043 568.985 L 1305.043 568.985 L 1305.043 568.985 Q 1301.271 572.141 1294.548 572.141 L 1294.548 572.141 L 1283.823 572.141 L 1283.823 584.201 L 1282.078 584.201 L 1282.078 548.277 L 1294.548 548.277 L 1294.548 548.277 Z  M 1294.651 570.55 L 1294.651 570.55 Q 1300.655 570.55 1303.889 567.856 L 1303.889 567.856 L 1303.889 567.856 Q 1307.122 565.162 1307.122 560.184 L 1307.122 560.184 L 1307.122 560.184 Q 1307.122 555.257 1303.889 552.563 L 1303.889 552.563 L 1303.889 552.563 Q 1300.655 549.868 1294.651 549.868 L 1294.651 549.868 L 1283.823 549.868 L 1283.823 570.55 L 1294.651 570.55 L 1294.651 570.55 Z  M 890.275 548.277 L 890.275 548.277 Q 896.998 548.277 900.77 551.434 L 900.77 551.434 L 900.77 551.434 Q 904.542 554.59 904.542 560.184 L 904.542 560.184 L 904.542 560.184 Q 904.542 565.829 900.77 568.985 L 900.77 568.985 L 900.77 568.985 Q 896.998 572.141 890.275 572.141 L 890.275 572.141 L 879.549 572.141 L 879.549 584.201 L 877.804 584.201 L 877.804 548.277 L 890.275 548.277 L 890.275 548.277 Z  M 890.378 570.55 L 890.378 570.55 Q 896.382 570.55 899.615 567.856 L 899.615 567.856 L 899.615 567.856 Q 902.848 565.162 902.848 560.184 L 902.848 560.184 L 902.848 560.184 Q 902.848 555.257 899.615 552.563 L 899.615 552.563 L 899.615 552.563 Q 896.382 549.868 890.378 549.868 L 890.378 549.868 L 879.549 549.868 L 879.549 570.55 L 890.378 570.55 L 890.378 570.55 Z  M 924.634 557.361 L 924.634 557.361 Q 929.406 557.361 931.947 559.824 L 931.947 559.824 L 931.947 559.824 Q 934.487 562.288 934.487 566.958 L 934.487 566.958 L 934.487 584.201 L 932.845 584.201 L 932.845 578.864 L 932.845 578.864 Q 931.562 581.43 929.022 582.893 L 929.022 582.893 L 929.022 582.893 Q 926.481 584.355 922.94 584.355 L 922.94 584.355 L 922.94 584.355 Q 918.475 584.355 915.935 582.303 L 915.935 582.303 L 915.935 582.303 Q 913.395 580.25 913.395 576.863 L 913.395 576.863 L 913.395 576.863 Q 913.395 573.63 915.704 571.602 L 915.704 571.602 L 915.704 571.602 Q 918.013 569.575 923.094 569.575 L 923.094 569.575 L 932.794 569.575 L 932.794 566.958 L 932.794 566.958 Q 932.794 563.006 930.715 560.954 L 930.715 560.954 L 930.715 560.954 Q 928.637 558.901 924.582 558.901 L 924.582 558.901 L 924.582 558.901 Q 921.76 558.901 919.296 559.876 L 919.296 559.876 L 919.296 559.876 Q 916.833 560.851 915.088 562.493 L 915.088 562.493 L 914.164 561.261 L 914.164 561.261 Q 916.115 559.414 918.86 558.388 L 918.86 558.388 L 918.86 558.388 Q 921.606 557.361 924.634 557.361 L 924.634 557.361 L 924.634 557.361 Z  M 923.043 582.918 L 923.043 582.918 Q 930.228 582.918 932.794 576.503 L 932.794 576.503 L 932.794 570.961 L 923.094 570.961 L 923.094 570.961 Q 918.937 570.961 917.013 572.526 L 917.013 572.526 L 917.013 572.526 Q 915.088 574.091 915.088 576.76 L 915.088 576.76 L 915.088 576.76 Q 915.088 579.634 917.218 581.276 L 917.218 581.276 L 917.218 581.276 Q 919.348 582.918 923.043 582.918 L 923.043 582.918 L 923.043 582.918 Z  M 955.195 584.355 L 955.195 584.355 Q 951.962 584.355 949.113 583.38 L 949.113 583.38 L 949.113 583.38 Q 946.265 582.405 944.674 580.814 L 944.674 580.814 L 945.495 579.48 L 945.495 579.48 Q 947.138 580.917 949.729 581.892 L 949.729 581.892 L 949.729 581.892 Q 952.321 582.867 955.246 582.867 L 955.246 582.867 L 955.246 582.867 Q 959.557 582.867 961.61 581.405 L 961.61 581.405 L 961.61 581.405 Q 963.663 579.942 963.663 577.325 L 963.663 577.325 L 963.663 577.325 Q 963.663 575.477 962.559 574.399 L 962.559 574.399 L 962.559 574.399 Q 961.456 573.322 959.814 572.808 L 959.814 572.808 L 959.814 572.808 Q 958.171 572.295 955.4 571.782 L 955.4 571.782 L 955.4 571.782 Q 952.167 571.166 950.242 570.525 L 950.242 570.525 L 950.242 570.525 Q 948.318 569.883 946.984 568.446 L 946.984 568.446 L 946.984 568.446 Q 945.649 567.009 945.649 564.443 L 945.649 564.443 L 945.649 564.443 Q 945.649 561.415 948.138 559.388 L 948.138 559.388 L 948.138 559.388 Q 950.627 557.361 955.4 557.361 L 955.4 557.361 L 955.4 557.361 Q 957.863 557.361 960.327 558.105 L 960.327 558.105 L 960.327 558.105 Q 962.79 558.849 964.33 560.081 L 964.33 560.081 L 963.457 561.415 L 963.457 561.415 Q 961.866 560.184 959.737 559.542 L 959.737 559.542 L 959.737 559.542 Q 957.607 558.901 955.349 558.901 L 955.349 558.901 L 955.349 558.901 Q 951.397 558.901 949.396 560.415 L 949.396 560.415 L 949.396 560.415 Q 947.394 561.929 947.394 564.392 L 947.394 564.392 L 947.394 564.392 Q 947.394 566.342 948.523 567.471 L 948.523 567.471 L 948.523 567.471 Q 949.652 568.6 951.32 569.139 L 951.32 569.139 L 951.32 569.139 Q 952.988 569.678 955.862 570.242 L 955.862 570.242 L 955.862 570.242 Q 958.941 570.807 960.84 571.448 L 960.84 571.448 L 960.84 571.448 Q 962.739 572.09 964.047 573.476 L 964.047 573.476 L 964.047 573.476 Q 965.356 574.861 965.356 577.325 L 965.356 577.325 L 965.356 577.325 Q 965.356 580.558 962.739 582.457 L 962.739 582.457 L 962.739 582.457 Q 960.121 584.355 955.195 584.355 L 955.195 584.355 L 955.195 584.355 Z  M 982.523 584.355 L 982.523 584.355 Q 979.29 584.355 976.441 583.38 L 976.441 583.38 L 976.441 583.38 Q 973.593 582.405 972.002 580.814 L 972.002 580.814 L 972.823 579.48 L 972.823 579.48 Q 974.465 580.917 977.057 581.892 L 977.057 581.892 L 977.057 581.892 Q 979.649 582.867 982.574 582.867 L 982.574 582.867 L 982.574 582.867 Q 986.885 582.867 988.938 581.405 L 988.938 581.405 L 988.938 581.405 Q 990.99 579.942 990.99 577.325 L 990.99 577.325 L 990.99 577.325 Q 990.99 575.477 989.887 574.399 L 989.887 574.399 L 989.887 574.399 Q 988.784 573.322 987.141 572.808 L 987.141 572.808 L 987.141 572.808 Q 985.499 572.295 982.728 571.782 L 982.728 571.782 L 982.728 571.782 Q 979.495 571.166 977.57 570.525 L 977.57 570.525 L 977.57 570.525 Q 975.646 569.883 974.311 568.446 L 974.311 568.446 L 974.311 568.446 Q 972.977 567.009 972.977 564.443 L 972.977 564.443 L 972.977 564.443 Q 972.977 561.415 975.466 559.388 L 975.466 559.388 L 975.466 559.388 Q 977.955 557.361 982.728 557.361 L 982.728 557.361 L 982.728 557.361 Q 985.191 557.361 987.655 558.105 L 987.655 558.105 L 987.655 558.105 Q 990.118 558.849 991.658 560.081 L 991.658 560.081 L 990.785 561.415 L 990.785 561.415 Q 989.194 560.184 987.064 559.542 L 987.064 559.542 L 987.064 559.542 Q 984.935 558.901 982.677 558.901 L 982.677 558.901 L 982.677 558.901 Q 978.725 558.901 976.724 560.415 L 976.724 560.415 L 976.724 560.415 Q 974.722 561.929 974.722 564.392 L 974.722 564.392 L 974.722 564.392 Q 974.722 566.342 975.851 567.471 L 975.851 567.471 L 975.851 567.471 Q 976.98 568.6 978.648 569.139 L 978.648 569.139 L 978.648 569.139 Q 980.316 569.678 983.19 570.242 L 983.19 570.242 L 983.19 570.242 Q 986.269 570.807 988.168 571.448 L 988.168 571.448 L 988.168 571.448 Q 990.067 572.09 991.375 573.476 L 991.375 573.476 L 991.375 573.476 Q 992.684 574.861 992.684 577.325 L 992.684 577.325 L 992.684 577.325 Q 992.684 580.558 990.067 582.457 L 990.067 582.457 L 990.067 582.457 Q 987.449 584.355 982.523 584.355 L 982.523 584.355 L 982.523 584.355 Z  M 1003.436 584.201 L 1003.436 557.566 L 1005.129 557.566 L 1005.129 584.201 L 1003.436 584.201 L 1003.436 584.201 Z  M 1004.257 550.587 L 1004.257 550.587 Q 1003.59 550.587 1003.076 550.099 L 1003.076 550.099 L 1003.076 550.099 Q 1002.563 549.612 1002.563 548.945 L 1002.563 548.945 L 1002.563 548.945 Q 1002.563 548.226 1003.051 547.739 L 1003.051 547.739 L 1003.051 547.739 Q 1003.538 547.251 1004.257 547.251 L 1004.257 547.251 L 1004.257 547.251 Q 1004.924 547.251 1005.437 547.739 L 1005.437 547.739 L 1005.437 547.739 Q 1005.95 548.226 1005.95 548.893 L 1005.95 548.893 L 1005.95 548.893 Q 1005.95 549.56 1005.437 550.074 L 1005.437 550.074 L 1005.437 550.074 Q 1004.924 550.587 1004.257 550.587 L 1004.257 550.587 L 1004.257 550.587 Z  M 1029.788 584.355 L 1029.788 584.355 Q 1026.093 584.355 1023.091 582.636 L 1023.091 582.636 L 1023.091 582.636 Q 1020.089 580.917 1018.395 577.838 L 1018.395 577.838 L 1018.395 577.838 Q 1016.702 574.759 1016.702 570.858 L 1016.702 570.858 L 1016.702 570.858 Q 1016.702 566.958 1018.395 563.879 L 1018.395 563.879 L 1018.395 563.879 Q 1020.089 560.8 1023.091 559.08 L 1023.091 559.08 L 1023.091 559.08 Q 1026.093 557.361 1029.788 557.361 L 1029.788 557.361 L 1029.788 557.361 Q 1033.535 557.361 1036.511 559.08 L 1036.511 559.08 L 1036.511 559.08 Q 1039.488 560.8 1041.181 563.879 L 1041.181 563.879 L 1041.181 563.879 Q 1042.875 566.958 1042.875 570.858 L 1042.875 570.858 L 1042.875 570.858 Q 1042.875 574.759 1041.181 577.838 L 1041.181 577.838 L 1041.181 577.838 Q 1039.488 580.917 1036.511 582.636 L 1036.511 582.636 L 1036.511 582.636 Q 1033.535 584.355 1029.788 584.355 L 1029.788 584.355 L 1029.788 584.355 Z  M 1029.788 582.816 L 1029.788 582.816 Q 1033.022 582.816 1035.613 581.302 L 1035.613 581.302 L 1035.613 581.302 Q 1038.205 579.788 1039.693 577.068 L 1039.693 577.068 L 1039.693 577.068 Q 1041.181 574.348 1041.181 570.858 L 1041.181 570.858 L 1041.181 570.858 Q 1041.181 567.369 1039.693 564.674 L 1039.693 564.674 L 1039.693 564.674 Q 1038.205 561.98 1035.613 560.466 L 1035.613 560.466 L 1035.613 560.466 Q 1033.022 558.952 1029.788 558.952 L 1029.788 558.952 L 1029.788 558.952 Q 1026.555 558.952 1023.964 560.466 L 1023.964 560.466 L 1023.964 560.466 Q 1021.372 561.98 1019.884 564.674 L 1019.884 564.674 L 1019.884 564.674 Q 1018.395 567.369 1018.395 570.858 L 1018.395 570.858 L 1018.395 570.858 Q 1018.395 574.348 1019.884 577.068 L 1019.884 577.068 L 1019.884 577.068 Q 1021.372 579.788 1023.964 581.302 L 1023.964 581.302 L 1023.964 581.302 Q 1026.555 582.816 1029.788 582.816 L 1029.788 582.816 L 1029.788 582.816 Z  M 1067.021 557.361 L 1067.021 557.361 Q 1071.999 557.361 1074.873 560.261 L 1074.873 560.261 L 1074.873 560.261 Q 1077.747 563.16 1077.747 568.549 L 1077.747 568.549 L 1077.747 584.201 L 1076.053 584.201 L 1076.053 568.652 L 1076.053 568.652 Q 1076.053 563.93 1073.667 561.441 L 1073.667 561.441 L 1073.667 561.441 Q 1071.281 558.952 1066.867 558.952 L 1066.867 558.952 L 1066.867 558.952 Q 1061.889 558.952 1059.015 561.903 L 1059.015 561.903 L 1059.015 561.903 Q 1056.141 564.854 1056.141 569.832 L 1056.141 569.832 L 1056.141 584.201 L 1054.448 584.201 L 1054.448 557.566 L 1056.09 557.566 L 1056.09 564.084 L 1056.09 564.084 Q 1057.373 560.954 1060.221 559.157 L 1060.221 559.157 L 1060.221 559.157 Q 1063.069 557.361 1067.021 557.361 L 1067.021 557.361 L 1067.021 557.361 Z  M 1100.764 557.361 L 1100.764 557.361 Q 1105.537 557.361 1108.077 559.824 L 1108.077 559.824 L 1108.077 559.824 Q 1110.617 562.288 1110.617 566.958 L 1110.617 566.958 L 1110.617 584.201 L 1108.975 584.201 L 1108.975 578.864 L 1108.975 578.864 Q 1107.692 581.43 1105.152 582.893 L 1105.152 582.893 L 1105.152 582.893 Q 1102.612 584.355 1099.07 584.355 L 1099.07 584.355 L 1099.07 584.355 Q 1094.606 584.355 1092.065 582.303 L 1092.065 582.303 L 1092.065 582.303 Q 1089.525 580.25 1089.525 576.863 L 1089.525 576.863 L 1089.525 576.863 Q 1089.525 573.63 1091.834 571.602 L 1091.834 571.602 L 1091.834 571.602 Q 1094.144 569.575 1099.224 569.575 L 1099.224 569.575 L 1108.924 569.575 L 1108.924 566.958 L 1108.924 566.958 Q 1108.924 563.006 1106.845 560.954 L 1106.845 560.954 L 1106.845 560.954 Q 1104.767 558.901 1100.713 558.901 L 1100.713 558.901 L 1100.713 558.901 Q 1097.89 558.901 1095.427 559.876 L 1095.427 559.876 L 1095.427 559.876 Q 1092.963 560.851 1091.218 562.493 L 1091.218 562.493 L 1090.295 561.261 L 1090.295 561.261 Q 1092.245 559.414 1094.991 558.388 L 1094.991 558.388 L 1094.991 558.388 Q 1097.736 557.361 1100.764 557.361 L 1100.764 557.361 L 1100.764 557.361 Z  M 1099.173 582.918 L 1099.173 582.918 Q 1106.358 582.918 1108.924 576.503 L 1108.924 576.503 L 1108.924 570.961 L 1099.224 570.961 L 1099.224 570.961 Q 1095.067 570.961 1093.143 572.526 L 1093.143 572.526 L 1093.143 572.526 Q 1091.218 574.091 1091.218 576.76 L 1091.218 576.76 L 1091.218 576.76 Q 1091.218 579.634 1093.348 581.276 L 1093.348 581.276 L 1093.348 581.276 Q 1095.478 582.918 1099.173 582.918 L 1099.173 582.918 L 1099.173 582.918 Z  M 1136.611 581.276 L 1137.483 582.508 L 1137.483 582.508 Q 1136.56 583.38 1135.123 583.868 L 1135.123 583.868 L 1135.123 583.868 Q 1133.686 584.355 1132.146 584.355 L 1132.146 584.355 L 1132.146 584.355 Q 1128.913 584.355 1127.142 582.534 L 1127.142 582.534 L 1127.142 582.534 Q 1125.372 580.712 1125.372 577.53 L 1125.372 577.53 L 1125.372 559.055 L 1120.343 559.055 L 1120.343 557.566 L 1125.372 557.566 L 1125.372 551.716 L 1127.066 551.716 L 1127.066 557.566 L 1135.841 557.566 L 1135.841 559.055 L 1127.066 559.055 L 1127.066 577.273 L 1127.066 577.273 Q 1127.066 579.993 1128.4 581.43 L 1128.4 581.43 L 1128.4 581.43 Q 1129.734 582.867 1132.3 582.867 L 1132.3 582.867 L 1132.3 582.867 Q 1134.866 582.867 1136.611 581.276 L 1136.611 581.276 L 1136.611 581.276 Z  M 1169.174 570.653 L 1169.174 571.115 L 1145.823 571.115 L 1145.823 571.115 Q 1145.874 574.502 1147.414 577.171 L 1147.414 577.171 L 1147.414 577.171 Q 1148.954 579.839 1151.648 581.328 L 1151.648 581.328 L 1151.648 581.328 Q 1154.342 582.816 1157.678 582.816 L 1157.678 582.816 L 1157.678 582.816 Q 1160.398 582.816 1162.707 581.815 L 1162.707 581.815 L 1162.707 581.815 Q 1165.017 580.814 1166.505 578.864 L 1166.505 578.864 L 1167.583 579.993 L 1167.583 579.993 Q 1165.786 582.097 1163.22 583.226 L 1163.22 583.226 L 1163.22 583.226 Q 1160.654 584.355 1157.678 584.355 L 1157.678 584.355 L 1157.678 584.355 Q 1153.778 584.355 1150.724 582.636 L 1150.724 582.636 L 1150.724 582.636 Q 1147.671 580.917 1145.926 577.838 L 1145.926 577.838 L 1145.926 577.838 Q 1144.181 574.759 1144.181 570.858 L 1144.181 570.858 L 1144.181 570.858 Q 1144.181 566.958 1145.797 563.879 L 1145.797 563.879 L 1145.797 563.879 Q 1147.414 560.8 1150.288 559.08 L 1150.288 559.08 L 1150.288 559.08 Q 1153.162 557.361 1156.703 557.361 L 1156.703 557.361 L 1156.703 557.361 Q 1160.193 557.361 1163.041 559.055 L 1163.041 559.055 L 1163.041 559.055 Q 1165.889 560.748 1167.531 563.776 L 1167.531 563.776 L 1167.531 563.776 Q 1169.174 566.804 1169.174 570.653 L 1169.174 570.653 L 1169.174 570.653 Z  M 1156.703 558.901 L 1156.703 558.901 Q 1153.726 558.901 1151.314 560.286 L 1151.314 560.286 L 1151.314 560.286 Q 1148.902 561.672 1147.465 564.161 L 1147.465 564.161 L 1147.465 564.161 Q 1146.028 566.65 1145.874 569.729 L 1145.874 569.729 L 1167.583 569.729 L 1167.583 569.729 Q 1167.377 566.65 1165.915 564.161 L 1165.915 564.161 L 1165.915 564.161 Q 1164.452 561.672 1162.066 560.286 L 1162.066 560.286 L 1162.066 560.286 Q 1159.679 558.901 1156.703 558.901 L 1156.703 558.901 L 1156.703 558.901 Z " fill="rgb(45,55,72)"/><path d=" M 1165.414 515.048 L 1134.52 479.637 L 1118.405 496.162 L 1118.405 515.048 L 1113.171 515.048 L 1113.171 443.2 L 1118.405 443.2 L 1118.405 489.388 L 1163.259 443.2 L 1169.623 443.2 L 1138.01 475.839 L 1171.778 515.048 L 1165.414 515.048 L 1165.414 515.048 Z  M 1200.312 461.059 L 1200.312 461.059 Q 1210.268 461.059 1215.605 466.14 L 1215.605 466.14 L 1215.605 466.14 Q 1220.943 471.22 1220.943 481.074 L 1220.943 481.074 L 1220.943 515.048 L 1216.016 515.048 L 1216.016 505.502 L 1216.016 505.502 Q 1213.45 510.224 1208.523 512.841 L 1208.523 512.841 L 1208.523 512.841 Q 1203.597 515.458 1196.72 515.458 L 1196.72 515.458 L 1196.72 515.458 Q 1187.79 515.458 1182.607 511.25 L 1182.607 511.25 L 1182.607 511.25 Q 1177.423 507.042 1177.423 500.165 L 1177.423 500.165 L 1177.423 500.165 Q 1177.423 493.493 1182.196 489.336 L 1182.196 489.336 L 1182.196 489.336 Q 1186.969 485.18 1197.438 485.18 L 1197.438 485.18 L 1215.811 485.18 L 1215.811 480.869 L 1215.811 480.869 Q 1215.811 473.376 1211.756 469.476 L 1211.756 469.476 L 1211.756 469.476 Q 1207.702 465.575 1199.901 465.575 L 1199.901 465.575 L 1199.901 465.575 Q 1194.564 465.575 1189.689 467.423 L 1189.689 467.423 L 1189.689 467.423 Q 1184.813 469.27 1181.426 472.35 L 1181.426 472.35 L 1178.86 468.654 L 1178.86 468.654 Q 1182.863 465.062 1188.508 463.061 L 1188.508 463.061 L 1188.508 463.061 Q 1194.154 461.059 1200.312 461.059 L 1200.312 461.059 L 1200.312 461.059 Z  M 1197.438 511.25 L 1197.438 511.25 Q 1204.11 511.25 1208.78 508.171 L 1208.78 508.171 L 1208.78 508.171 Q 1213.45 505.092 1215.811 499.241 L 1215.811 499.241 L 1215.811 489.182 L 1197.541 489.182 L 1197.541 489.182 Q 1189.637 489.182 1186.096 492.056 L 1186.096 492.056 L 1186.096 492.056 Q 1182.555 494.93 1182.555 499.96 L 1182.555 499.96 L 1182.555 499.96 Q 1182.555 505.194 1186.456 508.222 L 1186.456 508.222 L 1186.456 508.222 Q 1190.356 511.25 1197.438 511.25 L 1197.438 511.25 L 1197.438 511.25 Z  M 1268.26 461.059 L 1268.26 461.059 Q 1278.318 461.059 1284.169 466.91 L 1284.169 466.91 L 1284.169 466.91 Q 1290.019 472.76 1290.019 483.743 L 1290.019 483.743 L 1290.019 515.048 L 1284.887 515.048 L 1284.887 484.153 L 1284.887 484.153 Q 1284.887 475.121 1280.32 470.399 L 1280.32 470.399 L 1280.32 470.399 Q 1275.752 465.678 1267.541 465.678 L 1267.541 465.678 L 1267.541 465.678 Q 1258.098 465.678 1252.658 471.323 L 1252.658 471.323 L 1252.658 471.323 Q 1247.219 476.968 1247.219 486.514 L 1247.219 486.514 L 1247.219 515.048 L 1242.087 515.048 L 1242.087 461.47 L 1247.013 461.47 L 1247.013 473.068 L 1247.013 473.068 Q 1249.785 467.423 1255.276 464.241 L 1255.276 464.241 L 1255.276 464.241 Q 1260.767 461.059 1268.26 461.059 L 1268.26 461.059 L 1268.26 461.059 Z  M 1353.04 515.048 L 1330.254 486.411 L 1316.295 499.139 L 1316.295 515.048 L 1311.163 515.048 L 1311.163 438.889 L 1316.295 438.889 L 1316.295 492.775 L 1350.577 461.47 L 1357.146 461.47 L 1334.052 483.127 L 1359.404 515.048 L 1353.04 515.048 L 1353.04 515.048 Z  M 1370.592 515.048 L 1370.592 461.47 L 1375.724 461.47 L 1375.724 515.048 L 1370.592 515.048 L 1370.592 515.048 Z  M 1373.158 448.434 L 1373.158 448.434 Q 1371.413 448.434 1370.181 447.254 L 1370.181 447.254 L 1370.181 447.254 Q 1368.95 446.074 1368.95 444.329 L 1368.95 444.329 L 1368.95 444.329 Q 1368.95 442.584 1370.181 441.352 L 1370.181 441.352 L 1370.181 441.352 Q 1371.413 440.121 1373.158 440.121 L 1373.158 440.121 L 1373.158 440.121 Q 1374.903 440.121 1376.134 441.301 L 1376.134 441.301 L 1376.134 441.301 Q 1377.366 442.481 1377.366 444.226 L 1377.366 444.226 L 1377.366 444.226 Q 1377.366 445.971 1376.134 447.203 L 1376.134 447.203 L 1376.134 447.203 Q 1374.903 448.434 1373.158 448.434 L 1373.158 448.434 L 1373.158 448.434 Z  M 1442.748 488.053 L 1442.645 489.49 L 1396.56 489.49 L 1396.56 489.49 Q 1396.765 495.751 1399.742 500.627 L 1399.742 500.627 L 1399.742 500.627 Q 1402.718 505.502 1407.799 508.171 L 1407.799 508.171 L 1407.799 508.171 Q 1412.88 510.84 1419.243 510.84 L 1419.243 510.84 L 1419.243 510.84 Q 1424.478 510.84 1428.943 508.941 L 1428.943 508.941 L 1428.943 508.941 Q 1433.408 507.042 1436.384 503.347 L 1436.384 503.347 L 1439.361 506.734 L 1439.361 506.734 Q 1435.871 510.942 1430.585 513.2 L 1430.585 513.2 L 1430.585 513.2 Q 1425.299 515.458 1419.141 515.458 L 1419.141 515.458 L 1419.141 515.458 Q 1411.135 515.458 1404.874 511.969 L 1404.874 511.969 L 1404.874 511.969 Q 1398.613 508.479 1395.072 502.32 L 1395.072 502.32 L 1395.072 502.32 Q 1391.53 496.162 1391.53 488.259 L 1391.53 488.259 L 1391.53 488.259 Q 1391.53 480.458 1394.866 474.248 L 1394.866 474.248 L 1394.866 474.248 Q 1398.202 468.039 1404.053 464.549 L 1404.053 464.549 L 1404.053 464.549 Q 1409.903 461.059 1417.19 461.059 L 1417.19 461.059 L 1417.19 461.059 Q 1424.478 461.059 1430.277 464.498 L 1430.277 464.498 L 1430.277 464.498 Q 1436.076 467.936 1439.412 474.094 L 1439.412 474.094 L 1439.412 474.094 Q 1442.748 480.253 1442.748 488.053 L 1442.748 488.053 L 1442.748 488.053 Z  M 1417.19 465.575 L 1417.19 465.575 Q 1411.545 465.575 1407.029 468.09 L 1407.029 468.09 L 1407.029 468.09 Q 1402.513 470.605 1399.793 475.172 L 1399.793 475.172 L 1399.793 475.172 Q 1397.073 479.74 1396.662 485.487 L 1396.662 485.487 L 1437.718 485.487 L 1437.718 485.487 Q 1437.411 479.74 1434.639 475.223 L 1434.639 475.223 L 1434.639 475.223 Q 1431.868 470.707 1427.352 468.141 L 1427.352 468.141 L 1427.352 468.141 Q 1422.836 465.575 1417.19 465.575 L 1417.19 465.575 L 1417.19 465.575 Z  M 1529.479 461.47 L 1534.2 461.47 L 1513.877 515.048 L 1509.053 515.048 L 1490.989 468.552 L 1472.821 515.048 L 1468.1 515.048 L 1447.777 461.47 L 1452.704 461.47 L 1470.563 509.3 L 1488.833 461.47 L 1493.247 461.47 L 1511.414 509.197 L 1529.479 461.47 L 1529.479 461.47 Z  M 1546.106 515.048 L 1546.106 461.47 L 1551.238 461.47 L 1551.238 515.048 L 1546.106 515.048 L 1546.106 515.048 Z  M 1548.672 448.434 L 1548.672 448.434 Q 1546.927 448.434 1545.696 447.254 L 1545.696 447.254 L 1545.696 447.254 Q 1544.464 446.074 1544.464 444.329 L 1544.464 444.329 L 1544.464 444.329 Q 1544.464 442.584 1545.696 441.352 L 1545.696 441.352 L 1545.696 441.352 Q 1546.927 440.121 1548.672 440.121 L 1548.672 440.121 L 1548.672 440.121 Q 1550.417 440.121 1551.649 441.301 L 1551.649 441.301 L 1551.649 441.301 Q 1552.881 442.481 1552.881 444.226 L 1552.881 444.226 L 1552.881 444.226 Q 1552.881 445.971 1551.649 447.203 L 1551.649 447.203 L 1551.649 447.203 Q 1550.417 448.434 1548.672 448.434 L 1548.672 448.434 L 1548.672 448.434 Z  M 1594.142 515.458 L 1594.142 515.458 Q 1586.341 515.458 1580.183 511.969 L 1580.183 511.969 L 1580.183 511.969 Q 1574.024 508.479 1570.535 502.269 L 1570.535 502.269 L 1570.535 502.269 Q 1567.045 496.059 1567.045 488.259 L 1567.045 488.259 L 1567.045 488.259 Q 1567.045 480.355 1570.535 474.146 L 1570.535 474.146 L 1570.535 474.146 Q 1574.024 467.936 1580.183 464.498 L 1580.183 464.498 L 1580.183 464.498 Q 1586.341 461.059 1594.142 461.059 L 1594.142 461.059 L 1594.142 461.059 Q 1600.608 461.059 1605.894 463.574 L 1605.894 463.574 L 1605.894 463.574 Q 1611.18 466.088 1614.465 470.913 L 1614.465 470.913 L 1610.667 473.684 L 1610.667 473.684 Q 1607.793 469.681 1603.533 467.679 L 1603.533 467.679 L 1603.533 467.679 Q 1599.274 465.678 1594.142 465.678 L 1594.142 465.678 L 1594.142 465.678 Q 1587.881 465.678 1582.903 468.5 L 1582.903 468.5 L 1582.903 468.5 Q 1577.925 471.323 1575.102 476.455 L 1575.102 476.455 L 1575.102 476.455 Q 1572.28 481.587 1572.28 488.259 L 1572.28 488.259 L 1572.28 488.259 Q 1572.28 494.93 1575.102 500.062 L 1575.102 500.062 L 1575.102 500.062 Q 1577.925 505.194 1582.903 508.017 L 1582.903 508.017 L 1582.903 508.017 Q 1587.881 510.84 1594.142 510.84 L 1594.142 510.84 L 1594.142 510.84 Q 1599.274 510.84 1603.533 508.838 L 1603.533 508.838 L 1603.533 508.838 Q 1607.793 506.837 1610.667 502.834 L 1610.667 502.834 L 1614.465 505.605 L 1614.465 505.605 Q 1611.18 510.429 1605.894 512.944 L 1605.894 512.944 L 1605.894 512.944 Q 1600.608 515.458 1594.142 515.458 L 1594.142 515.458 L 1594.142 515.458 Z  M 1629.142 510.634 L 1665.169 510.634 L 1665.169 515.048 L 1622.573 515.048 L 1622.573 511.558 L 1657.881 465.883 L 1623.086 465.883 L 1623.086 461.47 L 1664.553 461.47 L 1664.553 464.959 L 1629.142 510.634 L 1629.142 510.634 Z  M 859.239 515.561 L 859.239 515.561 Q 848.667 515.561 840.199 510.84 L 840.199 510.84 L 840.199 510.84 Q 831.732 506.118 826.856 497.804 L 826.856 497.804 L 826.856 497.804 Q 821.981 489.49 821.981 479.124 L 821.981 479.124 L 821.981 479.124 Q 821.981 468.757 826.856 460.443 L 826.856 460.443 L 826.856 460.443 Q 831.732 452.129 840.199 447.408 L 840.199 447.408 L 840.199 447.408 Q 848.667 442.687 859.239 442.687 L 859.239 442.687 L 859.239 442.687 Q 867.04 442.687 873.609 445.201 L 873.609 445.201 L 873.609 445.201 Q 880.178 447.716 884.797 452.643 L 884.797 452.643 L 881.512 456.03 L 881.512 456.03 Q 872.89 447.511 859.444 447.511 L 859.444 447.511 L 859.444 447.511 Q 850.412 447.511 843.022 451.616 L 843.022 451.616 L 843.022 451.616 Q 835.632 455.722 831.424 462.958 L 831.424 462.958 L 831.424 462.958 Q 827.215 470.194 827.215 479.124 L 827.215 479.124 L 827.215 479.124 Q 827.215 488.053 831.424 495.29 L 831.424 495.29 L 831.424 495.29 Q 835.632 502.526 843.022 506.631 L 843.022 506.631 L 843.022 506.631 Q 850.412 510.737 859.444 510.737 L 859.444 510.737 L 859.444 510.737 Q 872.788 510.737 881.512 502.115 L 881.512 502.115 L 884.797 505.502 L 884.797 505.502 Q 880.178 510.429 873.557 512.995 L 873.557 512.995 L 873.557 512.995 Q 866.937 515.561 859.239 515.561 L 859.239 515.561 L 859.239 515.561 Z  M 926.879 461.059 L 926.879 461.059 Q 936.938 461.059 942.788 466.91 L 942.788 466.91 L 942.788 466.91 Q 948.639 472.76 948.639 483.743 L 948.639 483.743 L 948.639 515.048 L 943.507 515.048 L 943.507 484.153 L 943.507 484.153 Q 943.507 475.121 938.939 470.399 L 938.939 470.399 L 938.939 470.399 Q 934.372 465.678 926.16 465.678 L 926.16 465.678 L 926.16 465.678 Q 916.718 465.678 911.278 471.323 L 911.278 471.323 L 911.278 471.323 Q 905.838 476.968 905.838 486.514 L 905.838 486.514 L 905.838 515.048 L 900.706 515.048 L 900.706 438.889 L 905.838 438.889 L 905.838 472.657 L 905.838 472.657 Q 908.609 467.115 914.049 464.087 L 914.049 464.087 L 914.049 464.087 Q 919.489 461.059 926.879 461.059 L 926.879 461.059 L 926.879 461.059 Z  M 974.709 473.171 L 974.709 473.171 Q 977.173 467.32 982.407 464.19 L 982.407 464.19 L 982.407 464.19 Q 987.642 461.059 995.135 461.059 L 995.135 461.059 L 995.135 466.088 L 993.903 465.986 L 993.903 465.986 Q 984.973 465.986 979.944 471.58 L 979.944 471.58 L 979.944 471.58 Q 974.914 477.174 974.914 487.13 L 974.914 487.13 L 974.914 515.048 L 969.782 515.048 L 969.782 461.47 L 974.709 461.47 L 974.709 473.171 L 974.709 473.171 Z  M 1009.299 515.048 L 1009.299 461.47 L 1014.431 461.47 L 1014.431 515.048 L 1009.299 515.048 L 1009.299 515.048 Z  M 1011.865 448.434 L 1011.865 448.434 Q 1010.12 448.434 1008.888 447.254 L 1008.888 447.254 L 1008.888 447.254 Q 1007.657 446.074 1007.657 444.329 L 1007.657 444.329 L 1007.657 444.329 Q 1007.657 442.584 1008.888 441.352 L 1008.888 441.352 L 1008.888 441.352 Q 1010.12 440.121 1011.865 440.121 L 1011.865 440.121 L 1011.865 440.121 Q 1013.61 440.121 1014.841 441.301 L 1014.841 441.301 L 1014.841 441.301 Q 1016.073 442.481 1016.073 444.226 L 1016.073 444.226 L 1016.073 444.226 Q 1016.073 445.971 1014.841 447.203 L 1014.841 447.203 L 1014.841 447.203 Q 1013.61 448.434 1011.865 448.434 L 1011.865 448.434 L 1011.865 448.434 Z  M 1049.636 515.458 L 1049.636 515.458 Q 1043.17 515.458 1037.32 513.508 L 1037.32 513.508 L 1037.32 513.508 Q 1031.469 511.558 1028.185 508.581 L 1028.185 508.581 L 1030.545 504.476 L 1030.545 504.476 Q 1033.83 507.247 1039.013 509.095 L 1039.013 509.095 L 1039.013 509.095 Q 1044.197 510.942 1049.842 510.942 L 1049.842 510.942 L 1049.842 510.942 Q 1057.95 510.942 1061.799 508.274 L 1061.799 508.274 L 1061.799 508.274 Q 1065.648 505.605 1065.648 500.883 L 1065.648 500.883 L 1065.648 500.883 Q 1065.648 497.496 1063.544 495.546 L 1063.544 495.546 L 1063.544 495.546 Q 1061.44 493.596 1058.361 492.672 L 1058.361 492.672 L 1058.361 492.672 Q 1055.282 491.748 1049.842 490.722 L 1049.842 490.722 L 1049.842 490.722 Q 1043.478 489.593 1039.578 488.259 L 1039.578 488.259 L 1039.578 488.259 Q 1035.677 486.924 1032.906 483.948 L 1032.906 483.948 L 1032.906 483.948 Q 1030.135 480.971 1030.135 475.737 L 1030.135 475.737 L 1030.135 475.737 Q 1030.135 469.373 1035.421 465.216 L 1035.421 465.216 L 1035.421 465.216 Q 1040.707 461.059 1050.458 461.059 L 1050.458 461.059 L 1050.458 461.059 Q 1055.59 461.059 1060.619 462.496 L 1060.619 462.496 L 1060.619 462.496 Q 1065.648 463.933 1068.83 466.294 L 1068.83 466.294 L 1066.469 470.399 L 1066.469 470.399 Q 1063.185 468.039 1058.977 466.807 L 1058.977 466.807 L 1058.977 466.807 Q 1054.768 465.575 1050.355 465.575 L 1050.355 465.575 L 1050.355 465.575 Q 1042.862 465.575 1039.065 468.347 L 1039.065 468.347 L 1039.065 468.347 Q 1035.267 471.118 1035.267 475.634 L 1035.267 475.634 L 1035.267 475.634 Q 1035.267 479.226 1037.422 481.228 L 1037.422 481.228 L 1037.422 481.228 Q 1039.578 483.229 1042.708 484.204 L 1042.708 484.204 L 1042.708 484.204 Q 1045.839 485.18 1051.484 486.309 L 1051.484 486.309 L 1051.484 486.309 Q 1057.745 487.438 1061.594 488.721 L 1061.594 488.721 L 1061.594 488.721 Q 1065.443 490.004 1068.112 492.878 L 1068.112 492.878 L 1068.112 492.878 Q 1070.78 495.751 1070.78 500.781 L 1070.78 500.781 L 1070.78 500.781 Q 1070.78 507.452 1065.238 511.455 L 1065.238 511.455 L 1065.238 511.455 Q 1059.695 515.458 1049.636 515.458 L 1049.636 515.458 L 1049.636 515.458 Z " fill="rgb(45,55,72)"/></g><path d=" M 640 397.048 L 724 445.63 L 640 494.212 L 556 445.63 L 640 397.048 Z  M 544 466.414 L 628 514.996 L 628 611.907 L 544 563.324 L 544 466.414 Z  M 640 369.504 L 760 438.786 L 760 577.35 L 640 646.632 L 520 577.35 L 520 438.786 L 640 369.504 Z  M 652 514.996 L 736 466.414 L 736 563.409 L 652 611.991 L 652 514.996 Z " fill-rule="evenodd" fill="rgb(49,151,149)"/></g></svg>