<svg xmlns="http://www.w3.org/2000/svg" viewBox="0 0 640 640"><!--!Font Awesome Free v7.3.0 by @fontawesome - https://fontawesome.com License - https://fontawesome.com/license/free Copyright 2026 Fonticons, Inc.--><path d="M176 176C193.7 176 208 161.7 208 144C208 126.3 193.7 112 176 112C158.3 112 144 126.3 144 144C144 161.7 158.3 176 176 176zM256 144C256 179.8 232.5 210.1 200 220.3L200 296L384 296C414.9 296 440 270.9 440 240L440 220.3C407.5 210.1 384 179.8 384 144C384 99.8 419.8 64 464 64C508.2 64 544 99.8 544 144C544 179.8 520.5 210.1 488 220.3L488 240C488 297.4 441.4 344 384 344L200 344L200 419.7C232.5 429.9 256 460.2 256 496C256 540.2 220.2 576 176 576C131.8 576 96 540.2 96 496C96 460.2 119.5 429.9 152 419.7L152 220.4C119.5 210.1 96 179.8 96 144C96 99.8 131.8 64 176 64C220.2 64 256 99.8 256 144zM496 144C496 126.3 481.7 112 464 112C446.3 112 432 126.3 432 144C432 161.7 446.3 176 464 176C481.7 176 496 161.7 496 144zM176 528C193.7 528 208 513.7 208 496C208 478.3 193.7 464 176 464C158.3 464 144 478.3 144 496C144 513.7 158.3 528 176 528z"/></svg>
